<svg width="82" height="82" viewBox="0 0 82 82" fill="none" xmlns="http://www.w3.org/2000/svg">
<circle cx="41" cy="41" r="40.5" stroke="#FFCC00"/>
<path d="M49.3333 35.6667H32.6667C32.2987 35.6667 32 35.9647 32 36.3333C32 36.702 32.2987 37 32.6667 37H49.3333C49.7013 37 50 36.702 50 36.3333C50 35.9647 49.7013 35.6667 49.3333 35.6667Z" fill="black"/>
<path d="M32.6667 31.6667H39.3333C39.7013 31.6667 40 31.3687 40 31C40 30.6313 39.7013 30.3333 39.3333 30.3333H32.6667C32.2987 30.3333 32 30.6313 32 31C32 31.3687 32.2987 31.6667 32.6667 31.6667Z" fill="black"/>
<path d="M49.3333 41H32.6667C32.2987 41 32 41.298 32 41.6667C32 42.0353 32.2987 42.3333 32.6667 42.3333H49.3333C49.7013 42.3333 50 42.0353 50 41.6667C50 41.298 49.7013 41 49.3333 41Z" fill="black"/>
<path d="M49.3333 46.3333H32.6667C32.2987 46.3333 32 46.6313 32 47C32 47.3687 32.2987 47.6667 32.6667 47.6667H49.3333C49.7013 47.6667 50 47.3687 50 47C50 46.6313 49.7013 46.3333 49.3333 46.3333Z" fill="black"/>
<path d="M49.3333 51.6667H32.6667C32.2987 51.6667 32 51.9647 32 52.3333C32 52.702 32.2987 53 32.6667 53H49.3333C49.7013 53 50 52.702 50 52.3333C50 51.9647 49.7013 51.6667 49.3333 51.6667Z" fill="black"/>
<path d="M46.9414 21H25.332V61H56.6654V30.724L46.9414 21ZM47.332 23.276L54.3894 30.3333H47.332V23.276ZM26.6654 59.6667V22.3333H45.9987V31.6667H55.332V59.6667H26.6654Z" fill="black"/>
</svg>
