<svg width="35" height="35" viewBox="0 0 35 35" fill="none" xmlns="http://www.w3.org/2000/svg">
<path d="M22.5235 13.4457H12.3148V11.7606C12.3148 11.4916 12.0975 11.274 11.8284 11.274C11.5592 11.274 11.342 11.4916 11.342 11.7606V13.3715C11.5715 13.3715 11.7948 13.398 12.0116 13.4458H1.1346C0.508837 13.4457 0 13.9545 0 14.5799V27.5525C0 28.178 0.508837 28.6871 1.1346 28.6871H22.5235C23.1491 28.6871 23.6577 28.178 23.6577 27.5525V14.5799C23.6577 13.9545 23.1483 13.4457 22.5235 13.4457ZM22.6854 27.5525C22.6854 27.642 22.6124 27.7147 22.5235 27.7147H1.1346C1.04505 27.7147 0.972195 27.6421 0.972195 27.5525V14.5799C0.972195 14.4907 1.04505 14.4181 1.1346 14.4181H22.5235C22.6131 14.4181 22.6854 14.4907 22.6854 14.5799V27.5525ZM15.4065 6.79579C15.4065 6.53028 15.6236 6.31292 15.8924 6.31292H18.809C19.0778 6.31292 19.2957 6.53028 19.2957 6.79579C19.2957 7.06523 19.0778 7.28238 18.809 7.28238H15.8924C15.6236 7.28175 15.4065 7.06523 15.4065 6.79579ZM11.3424 8.84426V7.44415C11.3424 6.82169 11.8511 6.31285 12.4766 6.31285H12.9763C13.2451 6.31285 13.4623 6.53021 13.4623 6.79572C13.4623 7.06516 13.2451 7.28231 12.9763 7.28231H12.4766C12.3893 7.28231 12.3148 7.35698 12.3148 7.4445V8.84461C12.3148 9.11349 12.0975 9.33057 11.8284 9.33057C11.5597 9.33022 11.3424 9.11314 11.3424 8.84426ZM30.9619 6.79579C30.9619 7.06523 30.7444 7.28238 30.4752 7.28238H27.5593C27.2901 7.28238 27.0727 7.06523 27.0727 6.79579C27.0727 6.53028 27.2901 6.31292 27.5593 6.31292H30.4761C30.7449 6.31292 30.9619 6.53028 30.9619 6.79579ZM35 11.7867V14.7035C35 14.9723 34.7826 15.1895 34.5133 15.1895C34.2445 15.1895 34.0272 14.9723 34.0272 14.7035V11.7867C34.0272 11.5208 34.2445 11.3005 34.5133 11.3005C34.783 11.3006 35 11.5208 35 11.7867ZM35 7.44415V8.86974C35 9.13855 34.7826 9.35612 34.5133 9.35612C34.2445 9.35612 34.0272 9.13855 34.0272 8.86974V7.44415C34.0272 7.35663 33.9558 7.28175 33.8649 7.28175H33.3924C33.1232 7.28175 32.9058 7.06481 32.9058 6.79537C32.9058 6.52986 33.1232 6.3125 33.3924 6.3125H33.8649C34.491 6.31292 35 6.82169 35 7.44415ZM35 17.6199V20.4201C35 21.0419 34.491 21.5509 33.8654 21.5542H31.9666C31.6974 21.5542 31.48 21.3339 31.48 21.0651C31.48 20.7996 31.6974 20.5785 31.9666 20.5785H33.8654C33.9563 20.5785 34.028 20.5075 34.028 20.42V17.6198C34.028 17.3543 34.2445 17.1334 34.5142 17.1334C34.783 17.1339 35 17.3544 35 17.6199ZM25.1288 6.79579C25.1288 7.06523 24.9109 7.28238 24.6425 7.28238H21.7262C21.4569 7.28238 21.2396 7.06523 21.2396 6.79579C21.2396 6.53028 21.4569 6.31292 21.7262 6.31292H24.6425C24.911 6.31292 25.1288 6.53028 25.1288 6.79579ZM29.5361 21.0652C29.5361 21.334 29.3186 21.5543 29.0498 21.5543H26.1335C25.868 21.5543 25.6468 21.334 25.6468 21.0652C25.6468 20.7997 25.868 20.5785 26.1335 20.5785H29.0498C29.3186 20.5785 29.5361 20.7996 29.5361 21.0652Z" fill="#141414"/>
</svg>
