<svg width="35" height="35" viewBox="0 0 35 35" fill="none" xmlns="http://www.w3.org/2000/svg">
<path d="M3.28125 3.34961H14.2188V4.44336H3.28125V3.34961Z" fill="#141414"/>
<path d="M16.4062 5.53711H26.7969V6.63086H16.4062V5.53711Z" fill="#141414"/>
<path d="M15.3125 21.9434H14.2188V20.8496H15.3125V21.9434ZM13.125 21.9434H3.28125V20.8496H13.125V21.9434Z" fill="#141414"/>
<path d="M0 0.0683594V34.9234L2.43477 33.5129L4.32346 34.6067L6.20815 33.5129L8.09258 34.6067L9.97673 33.5129L11.8596 34.6067L13.7434 33.5129L15.6276 34.6067L17.5115 33.5129L19.3938 34.6067L21.2774 33.5129L23.1597 34.6067L25.0425 33.5129L26.9232 34.6067L28.8065 33.5129L30.6867 34.6067L32.5708 33.5129L35 34.9244V0.0683594H0ZM33.9062 33.0248L32.5708 32.2488L30.6867 33.3426L28.8065 32.2488L26.9232 33.3426L25.0425 32.2488L23.1597 33.3426L21.2774 32.2488L19.3938 33.3426L17.5115 32.2488L15.6276 33.3426L13.7434 32.2488L11.8596 33.3426L9.97673 32.2488L8.09258 33.3426L6.20815 32.2488L4.3224 33.3426L2.43477 32.2488L1.09375 33.0259V1.16211H33.9062V33.0248Z" fill="#141414"/>
<path d="M15.3125 5.53711H3.28125V19.7559H15.3125V5.53711ZM8.75 18.6621H4.375V18.3935C4.37473 18.1494 4.53655 17.9347 4.77154 17.8674L7.73289 17.0215H8.75V18.6621ZM6.83594 9.91211C7.26425 9.23065 8.013 8.81756 8.81783 8.81836H10.3906C10.6926 8.81836 10.9375 9.06322 10.9375 9.36523V13.4521L9.84375 14.2871H8.75534L7.66159 13.4521V11.0059H9.84909V9.91211H6.83594ZM8.75 15.3809H9.84375V15.9414L8.75 15.9344V15.3809ZM14.2188 18.6621H9.84375V17.0215H10.8609L13.8217 17.8674C14.0567 17.9345 14.2188 18.1491 14.2188 18.3935V18.6621ZM14.2188 16.8519C14.1864 16.8404 14.1557 16.8252 14.1226 16.8159L11.0873 15.9491H10.9375V14.8278L12.0312 13.9944V9.36523C12.0312 8.45921 11.2967 7.72461 10.3906 7.72461H8.81729C7.24075 7.72301 5.86609 8.7962 5.48504 10.326L5.31521 11.0059H6.5625V13.9934L7.65625 14.8268V15.9277L4.4706 16.8159C4.43722 16.8252 4.40731 16.8404 4.375 16.8519V6.63086H14.2188V16.8519Z" fill="#141414"/>
<path d="M31.7188 23.0371H3.28125V29.5996H31.7188V23.0371ZM30.625 28.5059H4.375V24.1309H30.625V28.5059Z" fill="#141414"/>
<path d="M31.7188 7.72461H16.4062V12.0996H31.7188V7.72461ZM30.625 11.0059H17.5V8.81836H30.625V11.0059Z" fill="#141414"/>
<path d="M31.7188 13.1934H16.4062V19.7559H31.7188V13.1934ZM30.625 18.6621H17.5V14.2871H30.625V18.6621Z" fill="#141414"/>
</svg>
