<svg width="82" height="82" viewBox="0 0 82 82" fill="none" xmlns="http://www.w3.org/2000/svg">
<circle cx="41" cy="41" r="40.5" stroke="#FFCC00"/>
<g clip-path="url(#clip0)">
<path d="M58.2337 52.6227C58.2337 48.3267 53.3411 44.9576 49.1473 44.798L47.0077 42.8757C49.6136 40.9744 51.1954 37.919 51.1954 34.6719V29.5156C51.1954 24.7772 47.3279 20.9219 42.5741 20.9219H39.4491C34.7018 20.9219 30.8828 24.7634 30.8828 29.5156V34.6719C30.8828 37.9135 32.4435 40.9631 35.0155 42.861L32.8598 44.798C28.6752 44.9573 23.7734 48.3179 23.7734 52.6227V60.1407C23.7734 60.5722 24.1232 60.922 24.5547 60.922H57.4524C57.8839 60.922 58.2337 60.5722 58.2337 60.1407V52.6227ZM39.273 55.7657H42.7298L43.5489 59.3595H38.4301L39.273 55.7657ZM42.7969 54.2032H39.2236L38.6242 52.3358L41.004 51.1459L43.4347 52.3618L42.7969 54.2032ZM41.0037 48.7985L38.2888 44.4556C39.1705 44.7006 40.0866 44.8279 41.0116 44.8279C41.9278 44.8279 42.8372 44.7031 43.7143 44.462L41.0037 48.7985ZM42.1219 49.9582L45.8728 43.9563L47.8958 45.7739L45.3216 51.5585L42.1219 49.9582ZM39.4491 22.4844H42.5741C46.4664 22.4844 49.6329 25.6384 49.6329 29.5156V30.1614L48.1659 28.049C48.0331 27.8576 47.8216 27.7355 47.5894 27.716C47.3569 27.6965 47.1286 27.7816 46.9656 27.9483C45.3775 29.5724 43.5388 30.2969 41.004 30.2969C38.4695 30.2969 36.6305 29.5724 35.0412 27.9483C34.8776 27.7807 34.6472 27.6959 34.4143 27.7163C34.1812 27.7368 33.9694 27.8607 33.8375 28.0542L32.4453 30.0943V29.5156C32.4453 25.6384 35.5871 22.4844 39.4491 22.4844ZM32.4453 34.6719V32.8662L34.6151 29.6865C36.3534 31.1651 38.4076 31.8594 41.004 31.8594C43.6032 31.8594 45.6589 31.1636 47.3974 29.682L49.6329 32.901V34.6719C49.6329 39.3506 45.8087 43.2657 41.0116 43.2657C36.2301 43.2657 32.4453 39.3628 32.4453 34.6719ZM36.1343 43.9566L39.8858 49.9582L36.6855 51.5585L34.1113 45.7739L36.1343 43.9566ZM25.3359 52.6227C25.3359 49.4043 29.2483 46.6254 32.6672 46.3727L35.5902 52.9404C35.6768 53.1351 35.8395 53.2861 36.0403 53.3582C36.2411 53.4302 36.4624 53.4168 36.6534 53.3215L37.21 53.0429L37.8439 55.0168L36.8252 59.3595H25.3359V52.6227ZM56.6711 59.3595H45.1513L44.1644 55.0287L44.844 53.0664L45.3537 53.3215C45.5459 53.4177 45.7678 53.4296 45.9668 53.3582C46.1676 53.2861 46.3302 53.1351 46.4169 52.9404L49.3399 46.3727C52.7588 46.6257 56.6711 49.4043 56.6711 52.6227V59.3595Z" fill="black"/>
<path d="M51.1602 55.7657H48.0352C47.6036 55.7657 47.2539 56.1154 47.2539 56.5469C47.2539 56.9785 47.6036 57.3282 48.0352 57.3282H51.1602C51.5917 57.3282 51.9414 56.9785 51.9414 56.5469C51.9414 56.1154 51.5917 55.7657 51.1602 55.7657Z" fill="black"/>
<path d="M54.2422 55.7657C54.6734 55.7657 55.0234 56.1157 55.0234 56.5469C55.0234 56.9782 54.6734 57.3282 54.2422 57.3282C53.811 57.3282 53.4609 56.9782 53.4609 56.5469C53.4609 56.1157 53.811 55.7657 54.2422 55.7657Z" fill="black"/>
</g>
<defs>
<clipPath id="clip0">
<rect width="39.922" height="40" fill="white" transform="translate(21 21)"/>
</clipPath>
</defs>
</svg>
