<svg width="82" height="82" viewBox="0 0 82 82" fill="none" xmlns="http://www.w3.org/2000/svg">
<circle cx="41" cy="41" r="40.5" stroke="#FFCC00"/>
<path d="M42.3504 46.106H40.0635C39.2319 46.106 38.5583 45.4324 38.5583 44.6008C38.5583 43.7692 39.2319 43.0956 40.0635 43.0956H44.0885C44.6373 43.0956 45.0864 42.6466 45.0864 42.0977C45.0864 41.5489 44.6373 41.0998 44.0885 41.0998H42.2008V39.711C42.2008 39.1622 41.7517 38.7131 41.2028 38.7131C40.654 38.7131 40.2049 39.1622 40.2049 39.711V41.0998H40.0635C38.1342 41.0998 36.5625 42.6715 36.5625 44.6008C36.5625 46.5301 38.1342 48.1019 40.0635 48.1019H42.3504C43.182 48.1019 43.8556 48.7755 43.8556 49.6071C43.8556 50.4387 43.182 51.1123 42.3504 51.1123H38.2506C37.7018 51.1123 37.2527 51.5613 37.2527 52.1102C37.2527 52.659 37.7018 53.1081 38.2506 53.1081H40.2132V54.5301C40.2132 55.079 40.6623 55.5281 41.2111 55.5281C41.76 55.5281 42.2091 55.079 42.2091 54.5301V53.1081H42.3754C42.3837 53.1081 42.392 53.1081 42.4003 53.1081C44.313 53.0832 45.8515 51.5198 45.8515 49.6071C45.8515 47.6778 44.2798 46.106 42.3504 46.106Z" fill="black"/>
<path d="M56.2029 43.8441C55.155 41.4324 53.708 39.0956 51.8785 36.9085C49.6665 34.2474 47.4627 32.4678 46.3401 31.6445L50.5812 23.7775C50.7891 23.3867 50.7226 22.9044 50.3983 22.5967C49.3006 21.5239 48.1363 21 46.839 21C45.6498 21 44.5604 21.4491 43.6124 21.8482C42.864 22.1559 42.1571 22.4553 41.5833 22.4553C41.4087 22.4553 41.259 22.4304 41.1093 22.3721C39.1301 21.6486 37.6083 21.1996 36.1363 21.1996C34.2735 21.1996 32.6852 21.948 31.1301 23.5447C30.8058 23.8773 30.7559 24.4012 31.0137 24.7921L35.5875 31.7027C34.4565 32.5426 32.2943 34.3056 30.1238 36.9085C28.3026 39.0956 26.8473 41.4324 25.7995 43.8441C24.4856 46.8794 23.8203 50.0478 23.8203 53.2578C23.8203 57.5239 27.2964 61 31.5625 61H50.4399C54.706 61 58.1821 57.5239 58.1821 53.2578C58.1821 50.0478 57.5168 46.8794 56.2029 43.8441ZM33.1426 24.3763C34.1072 23.5447 35.0303 23.1788 36.1363 23.1788C37.3172 23.1788 38.6478 23.578 40.4191 24.2349C40.785 24.368 41.1758 24.4345 41.575 24.4345C42.548 24.4345 43.4794 24.052 44.3692 23.6778C45.2257 23.3202 46.0407 22.9792 46.8307 22.9792C47.2132 22.9792 47.7538 23.0457 48.4357 23.5281L44.444 30.9459H37.4918L33.1426 24.3763ZM50.4399 59.0042H31.5625C28.3941 59.0042 25.8162 56.4262 25.8162 53.2578C25.8162 47.9272 27.7704 42.8711 31.6124 38.2308C34.0407 35.2952 36.5105 33.474 37.259 32.9418H44.7268C45.4835 33.4657 47.9451 35.2952 50.3733 38.2308C54.2236 42.8711 56.1696 47.9189 56.1696 53.2578C56.1862 56.4262 53.6083 59.0042 50.4399 59.0042Z" fill="black"/>
</svg>
