<svg width="82" height="82" viewBox="0 0 82 82" fill="none" xmlns="http://www.w3.org/2000/svg">
<circle cx="41" cy="41" r="40.5" stroke="#FFCC00"/>
<g clip-path="url(#clip0)">
<path d="M56.7125 37.3128L55.9069 28.4448C55.7964 27.2369 54.7629 26.2034 53.5551 26.093L44.6869 25.2872C43.6161 25.1902 42.2338 25.692 41.4706 26.4552L21.4477 46.4781C20.5507 47.3751 20.5508 48.8344 21.4477 49.7313L32.2684 60.552C33.1651 61.4487 34.6246 61.449 35.5216 60.552L55.5447 40.5289C56.3077 39.7659 56.8095 38.3835 56.7125 37.3128ZM34.4392 59.4695L34.439 59.4694C34.1393 59.7691 33.6511 59.7694 33.351 59.4694L22.5303 48.6487C22.2303 48.3486 22.2306 47.8604 22.5303 47.5606L42.5534 27.5376C42.9885 27.1025 43.9394 26.7563 44.5482 26.8121L53.4163 27.6177C53.6523 27.639 53.8827 27.7629 54.0598 27.94C54.237 28.1171 54.3605 28.3475 54.382 28.5837L55.1876 37.4517C55.244 38.0715 54.9051 39.0036 54.4622 39.4465L34.4392 59.4695Z" fill="black"/>
<path d="M40.4581 41.6762C41.2042 42.4223 41.2045 43.6362 40.4581 44.3826C40.159 44.6817 40.1591 45.1663 40.4581 45.4653C40.7571 45.7643 41.2416 45.7646 41.5408 45.4653C42.8841 44.1221 42.8841 41.9367 41.5408 40.5934C41.5176 40.5702 41.4899 40.555 41.4664 40.5327L42.0144 39.9846C42.3136 39.6855 42.3134 39.2008 42.0144 38.9019C41.7155 38.6029 41.231 38.6026 40.9317 38.9019L40.0884 39.7452C38.9147 39.3962 37.5941 39.6684 36.669 40.5934C35.3258 41.9367 35.3258 44.1221 36.669 45.4653C37.4151 46.2114 37.4154 47.4253 36.669 48.1717C35.9226 48.9181 34.7087 48.9178 33.9626 48.1717C33.2165 47.4256 33.2162 46.2117 33.9626 45.4653C34.2617 45.1662 34.2616 44.6815 33.9626 44.3826C33.6636 44.0836 33.1791 44.0833 32.8799 44.3826C31.9239 45.3385 31.6617 46.7177 32.0663 47.9196C31.9437 47.9537 31.8259 48.0076 31.7295 48.1041L31.1881 48.6454C30.889 48.9446 30.8892 49.4292 31.1881 49.7282C31.4871 50.0271 31.9716 50.0275 32.2709 49.7282L32.8123 49.1868C32.8147 49.1843 32.8154 49.1809 32.8179 49.1784C32.8408 49.2026 32.8563 49.2309 32.8799 49.2544C34.2231 50.5976 36.4085 50.5977 37.7517 49.2544C39.0949 47.9112 39.0949 45.7258 37.7517 44.3826C37.0056 43.6365 37.0053 42.4226 37.7517 41.6762C38.498 40.9296 39.712 40.9301 40.4581 41.6762Z" fill="black"/>
<path d="M47.4286 34.5712C48.6226 35.7652 50.5648 35.7653 51.7589 34.5712C52.9531 33.3771 52.9527 31.4347 51.7589 30.2408C50.5651 29.047 48.6227 29.0467 47.4286 30.2408C46.2343 31.4351 46.2346 33.3772 47.4286 34.5712ZM50.6762 31.3236C51.2732 31.9206 51.273 32.8919 50.6762 33.4888C50.0794 34.0856 49.108 34.0857 48.511 33.4888C47.914 32.8918 47.9142 31.9204 48.511 31.3236C49.1078 30.7268 50.079 30.7264 50.6762 31.3236Z" fill="black"/>
</g>
<defs>
<clipPath id="clip0">
<rect width="40" height="40" fill="white" transform="translate(41 12.7157) rotate(45)"/>
</clipPath>
</defs>
</svg>
