<svg width="82" height="82" viewBox="0 0 82 82" fill="none" xmlns="http://www.w3.org/2000/svg">
<circle cx="41" cy="41" r="40.5" stroke="#FFCC00"/>
<g clip-path="url(#clip0)">
<path d="M57.6666 29.3333H49.3334V27.6666C49.3334 25.8283 47.8384 24.3333 46 24.3333H36C34.1616 24.3333 32.6666 25.8282 32.6666 27.6666V29.3333H24.3334C22.4949 29.3333 21 30.8283 21 32.6666V54.3333C21 56.1716 22.4949 57.6666 24.3334 57.6666H57.6667C59.5051 57.6666 61.0001 56.1717 61.0001 54.3333V32.6666C61 30.8283 59.5051 29.3333 57.6666 29.3333ZM34.3334 27.6666C34.3334 26.7479 35.0813 26 36 26H46C46.9188 26 47.6666 26.7479 47.6666 27.6666V29.3333H34.3334V27.6666ZM59.3334 54.3333C59.3334 55.2521 58.5855 56 57.6667 56H24.3334C23.4146 56 22.6667 55.2521 22.6667 54.3333V42.2031C23.159 42.4901 23.7235 42.6667 24.3334 42.6667H37.6667V45.1667C37.6667 45.6273 38.0395 46 38.5001 46H43.5001C43.9607 46 44.3334 45.6273 44.3334 45.1667V42.6667H57.6668C58.2766 42.6667 58.8413 42.4902 59.3334 42.2031V54.3333H59.3334ZM39.3334 44.3333V41H42.6667V44.3333H39.3334ZM59.3334 39.3333C59.3334 40.2521 58.5855 41 57.6667 41H44.3334V40.1666C44.3334 39.706 43.9606 39.3333 43.5 39.3333H38.5C38.0394 39.3333 37.6666 39.706 37.6666 40.1666V41H24.3334C23.4146 41 22.6667 40.2521 22.6667 39.3333V32.6667C22.6667 31.7479 23.4146 31 24.3334 31H57.6667C58.5855 31 59.3334 31.7479 59.3334 32.6667V39.3333Z" fill="black"/>
</g>
<defs>
<clipPath id="clip0">
<rect width="40" height="40" fill="white" transform="translate(21 21)"/>
</clipPath>
</defs>
</svg>
