<svg width="82" height="82" viewBox="0 0 82 82" fill="none" xmlns="http://www.w3.org/2000/svg">
<circle cx="41" cy="41" r="40.5" stroke="#FFCC00"/>
<path d="M51.0459 61H30.9455C30.4837 61 30.11 60.6263 30.11 60.1645V38.4952C26.7706 38.0962 24.2617 35.3254 24.2617 31.8612C24.2617 28.1758 27.2618 25.1774 30.9488 25.1774C31.7345 25.1774 32.5145 25.3169 33.2455 25.5854C34.493 22.9875 37.7639 21 41.0194 21C44.2544 21 47.5066 22.9867 48.7516 25.5837C49.4826 25.3137 50.2528 25.1774 51.0524 25.1774C54.7353 25.1774 57.7329 28.1758 57.7329 31.8612C57.7329 35.3263 55.2232 38.0962 51.8813 38.4952V60.1645C51.8814 60.6263 51.5076 61 51.0459 61ZM31.781 59.329H50.2104V54.3161H31.781V59.329ZM46.8506 52.6452H50.2104V37.7095C50.2104 37.2477 50.5841 36.874 51.0459 36.874C53.8591 36.874 56.062 34.6719 56.062 31.8611C56.062 29.0969 53.815 26.8482 51.0524 26.8482C50.212 26.8482 49.4157 27.0481 48.6863 27.443C48.4627 27.5645 48.1935 27.5752 47.9634 27.4773C47.7284 27.3786 47.5522 27.1787 47.4837 26.9347C46.8326 24.6233 43.8709 22.6709 41.0193 22.6709C38.1449 22.6709 35.1661 24.6233 34.5126 26.9347C34.4441 27.1795 34.2678 27.3786 34.0345 27.4773C33.8011 27.5752 33.5335 27.563 33.3116 27.443C32.5928 27.0538 31.7761 26.8482 30.9488 26.8482C28.1829 26.8482 25.9327 29.0969 25.9327 31.8611C25.9327 34.6718 28.1348 36.874 30.9456 36.874C31.4074 36.874 31.7811 37.2477 31.7811 37.7095V52.6452H35.1393V46.7969C35.1393 46.3351 35.5129 45.9614 35.9748 45.9614C36.4366 45.9614 36.8102 46.3351 36.8102 46.7969V52.6452H40.1358V45.1259C40.1358 44.6641 40.5095 44.2905 40.9713 44.2905C41.4332 44.2905 41.8068 44.6641 41.8068 45.1259V52.6452H45.1797V46.7969C45.1797 46.3351 45.5534 45.9614 46.0152 45.9614C46.4771 45.9614 46.8507 46.3351 46.8507 46.7969V52.6452H46.8506Z" fill="black"/>
</svg>
