<svg width="20" height="20" viewBox="0 0 20 20" fill="none" xmlns="http://www.w3.org/2000/svg">
<path d="M17.6453 9.26801C16.9647 8.92777 15.6888 8.92383 15.6348 8.92383C15.473 8.92383 15.3418 9.055 15.3418 9.2168C15.3418 9.37859 15.473 9.50977 15.6348 9.50977C15.964 9.5098 16.92 9.56051 17.3833 9.79211C17.4253 9.81316 17.47 9.82309 17.514 9.82309C17.6215 9.82309 17.725 9.76371 17.7763 9.66109C17.8487 9.51637 17.79 9.34039 17.6453 9.26801Z" fill="#FFCC00"/>
<path d="M19.1059 13.4394L17.896 13.0937C17.8438 13.0788 17.8073 13.0305 17.8073 12.9761V12.5723C17.9057 12.5041 17.9996 12.4277 18.0874 12.3425C18.5128 11.9297 18.747 11.376 18.747 10.7834V10.226L18.864 9.9921C18.9924 9.73527 19.0603 9.44773 19.0603 9.16062V7.65086C19.0603 7.48906 18.9291 7.35789 18.7673 7.35789H15.948C14.9229 7.35789 14.0888 8.19195 14.0888 9.2171V9.23457C14.0888 9.47332 14.1453 9.71242 14.252 9.92593L14.4021 10.226V10.7045C14.4021 11.4629 14.7758 12.1433 15.3418 12.5528L15.3419 12.976C15.3419 13.0413 15.3419 13.0684 15.1 13.1375L14.5096 13.3062L12.8018 12.6851C12.8079 12.6046 12.7807 12.5226 12.7219 12.4609L12.1762 11.8875V10.925C12.2339 10.8775 12.2907 10.8286 12.3459 10.777C13.0343 10.1317 13.4292 9.22058 13.4292 8.27734V7.50867C13.6371 7.05629 13.7424 6.57758 13.7424 6.08457V2.95215C13.7424 2.79035 13.6112 2.65918 13.4495 2.65918H9.06395C7.52059 2.65918 6.265 3.9148 6.265 5.45812V6.08465C6.265 6.57765 6.37035 7.05636 6.57824 7.50875V8.17011C6.57824 9.26527 7.0652 10.2519 7.83125 10.9024V11.8875L7.28551 12.4609C7.22672 12.5226 7.19953 12.6046 7.20566 12.6852L5.40313 13.3406C5.2725 13.3881 5.15113 13.4525 5.04094 13.5304L4.75789 13.3889C5.60047 13.0221 5.86738 12.5063 5.8802 12.4807C5.92145 12.3982 5.92145 12.3011 5.8802 12.2186C5.66898 11.7962 5.6434 11.0219 5.62285 10.3998C5.61602 10.1927 5.60953 9.99706 5.59715 9.82285C5.49727 8.41761 4.42898 7.35789 3.11219 7.35789C1.79539 7.35789 0.72707 8.41757 0.627227 9.82285C0.614844 9.9971 0.608359 10.1928 0.601523 10.3999C0.580977 11.022 0.555352 11.7962 0.34418 12.2186C0.30293 12.301 0.30293 12.3982 0.34418 12.4806C0.356992 12.5062 0.623359 13.021 1.46762 13.3882L0.681406 13.7813C0.261094 13.9916 0 14.4141 0 14.8839V17.0483C0 17.2101 0.131172 17.3413 0.292969 17.3413C0.454766 17.3413 0.585938 17.2101 0.585938 17.0483V14.8839C0.585938 14.6374 0.72293 14.4157 0.943438 14.3054L1.92246 13.8159L2.26301 14.1396C2.50113 14.3659 2.8066 14.4789 3.11219 14.4789C3.4177 14.4789 3.72332 14.3658 3.96137 14.1396L4.30188 13.816L4.62109 13.9756C4.47078 14.2161 4.38547 14.4981 4.38547 14.7935V17.0484C4.38547 17.2102 4.51664 17.3414 4.67844 17.3414C4.84023 17.3414 4.97141 17.2102 4.97141 17.0484V14.7935C4.97141 14.3914 5.22535 14.0288 5.60336 13.8913L7.50383 13.2003L8.29496 14.387C8.39609 14.5387 8.55816 14.636 8.73961 14.654C8.75984 14.656 8.77996 14.657 8.80004 14.657C8.96012 14.657 9.11344 14.594 9.22805 14.4794L9.7107 13.9968V17.0485C9.7107 17.2103 9.84188 17.3414 10.0037 17.3414C10.1655 17.3414 10.2966 17.2103 10.2966 17.0485V13.9968L10.7793 14.4794C10.8939 14.594 11.0472 14.657 11.2073 14.657C11.2273 14.657 11.2475 14.656 11.2677 14.6541C11.4492 14.6361 11.6112 14.5388 11.7124 14.3871L12.5036 13.2003L14.404 13.8914C14.782 14.0289 15.0359 14.3914 15.0359 14.7936V17.0485C15.0359 17.2103 15.1671 17.3415 15.3289 17.3415C15.4907 17.3415 15.6219 17.2103 15.6219 17.0485V14.7936C15.6219 14.3863 15.46 14.0042 15.1886 13.7217L15.2609 13.701C15.3339 13.6802 15.4336 13.6516 15.5336 13.6026L16.2816 14.3506V17.0485C16.2816 17.2103 16.4127 17.3415 16.5745 17.3415C16.7363 17.3415 16.8675 17.2103 16.8675 17.0485V14.3506L17.6103 13.6078C17.6498 13.6279 17.6913 13.6448 17.735 13.6573L18.945 14.003C19.2211 14.0819 19.4141 14.3376 19.4141 14.6249V17.0485C19.4141 17.2103 19.5452 17.3415 19.707 17.3415C19.8688 17.3415 20 17.2103 20 17.0485V14.6249C20 14.0773 19.6323 13.5899 19.1059 13.4394ZM1.87949 12.922C1.33148 12.7248 1.0566 12.4619 0.939258 12.3184C1.01926 12.1092 1.07113 11.8697 1.10625 11.6168C1.26781 12.0042 1.5384 12.3349 1.87949 12.5709V12.922ZM3.55781 13.7149C3.30793 13.9523 2.91648 13.9523 2.66668 13.7148L2.39422 13.4559C2.4402 13.3698 2.46547 13.2721 2.46547 13.1698V12.8576C2.66984 12.9214 2.88711 12.9559 3.11227 12.9559C3.33715 12.9559 3.5543 12.9213 3.75902 12.8578L3.75898 13.1698C3.75898 13.2721 3.78422 13.3698 3.83023 13.456L3.55781 13.7149ZM3.11234 12.37C2.2375 12.37 1.52582 11.6582 1.52582 10.7834C1.52582 10.6216 1.39465 10.4905 1.23285 10.4905C1.21645 10.4905 1.20043 10.4921 1.18477 10.4948C1.18562 10.4696 1.18645 10.4443 1.1873 10.4194C1.19383 10.2179 1.20012 10.0277 1.21172 9.86445C1.24914 9.33804 1.45949 8.85296 1.80402 8.49851C2.15164 8.14086 2.61625 7.9439 3.11227 7.9439C3.60828 7.9439 4.07285 8.14086 4.42051 8.49851C4.76504 8.85296 4.97539 9.33804 5.01281 9.86445C5.02437 10.0276 5.0307 10.2178 5.03734 10.4193C5.03793 10.4366 5.03852 10.4541 5.0391 10.4715C4.72035 9.98042 4.22809 9.61851 3.59203 9.41414C3.00441 9.22535 2.49902 9.23703 2.4777 9.23757C2.40098 9.23972 2.32816 9.27183 2.27492 9.32707L1.74633 9.87527C1.63402 9.99175 1.63738 10.1772 1.75387 10.2895C1.87035 10.4018 2.05582 10.3984 2.16813 10.282L2.60797 9.82585C2.98676 9.84437 4.20539 9.98609 4.67934 11.0297C4.56008 11.7988 3.89906 12.37 3.11234 12.37ZM4.34488 12.923L4.34492 12.5735C4.68574 12.3389 4.95672 12.0088 5.1184 11.6185C5.15352 11.8708 5.20535 12.1098 5.2852 12.3184C5.16852 12.4606 4.89234 12.7259 4.34488 12.923ZM7.16418 8.17007V7.4432C7.16418 7.3991 7.15422 7.35554 7.13504 7.31582C6.94652 6.92543 6.85094 6.51121 6.85094 6.08465V5.45816C6.85094 4.23789 7.84371 3.24516 9.06395 3.24516H13.1565V6.08469C13.1565 6.51125 13.0609 6.92547 12.8724 7.31586C12.8532 7.35558 12.8432 7.39914 12.8432 7.44324V8.27742C12.8432 9.07082 12.5243 9.80671 11.9452 10.3496C11.8729 10.4173 11.7978 10.4808 11.7202 10.54C11.7185 10.5412 11.7169 10.5425 11.7152 10.5437C11.1727 10.9556 10.5081 11.1558 9.81414 11.1108C8.32816 11.0146 7.16418 9.72289 7.16418 8.17007ZM8.81375 14.065C8.81172 14.0671 8.80699 14.0719 8.79742 14.0709C8.78789 14.0699 8.78414 14.0643 8.78254 14.0619L7.87141 12.6952L8.16461 12.3871L9.54684 13.3319L8.81375 14.065ZM10.0037 12.9344L8.41719 11.85V11.3031C8.82769 11.525 9.28734 11.6638 9.77621 11.6955C9.85344 11.7005 9.93019 11.7029 10.0067 11.7029C10.5669 11.7029 11.1061 11.569 11.5902 11.3148V11.85L10.0037 12.9344ZM11.2249 14.062C11.2233 14.0644 11.2195 14.07 11.21 14.0709C11.2004 14.0721 11.1957 14.0671 11.1937 14.0651L10.4606 13.332L11.8428 12.3872L12.1361 12.6953L11.2249 14.062ZM16.5745 13.8148L15.9097 13.15C15.9213 13.0973 15.9279 13.0396 15.9278 12.976L15.9278 12.8523C16.1123 12.9129 16.3067 12.9488 16.5079 12.9548C16.5305 12.9555 16.5529 12.9559 16.5754 12.9559C16.7977 12.9559 17.0148 12.9223 17.2213 12.8582V12.9761C17.2213 13.0346 17.2287 13.0918 17.2425 13.1469L16.5745 13.8148ZM17.6793 11.9221C17.3688 12.2234 16.9586 12.3825 16.5255 12.3692C15.6777 12.3437 14.988 11.597 14.988 10.7046V10.1569C14.988 10.1114 14.9774 10.0666 14.9571 10.0259L14.7761 9.66394C14.7098 9.53132 14.6748 9.38289 14.6748 9.2346V9.21714C14.6748 8.51504 15.246 7.94386 15.948 7.94386H18.4743V9.16066C18.4743 9.3573 18.4279 9.55421 18.3399 9.73011L18.192 10.0259C18.1717 10.0666 18.1611 10.1114 18.1611 10.1569V10.7834C18.1611 11.2162 17.99 11.6206 17.6793 11.9221Z" fill="#FFCC00"/>
<path d="M18.4541 14.876C18.2923 14.876 18.1611 15.0071 18.1611 15.1689V17.0484C18.1611 17.2102 18.2923 17.3414 18.4541 17.3414C18.6159 17.3414 18.7471 17.2102 18.7471 17.0484V15.1689C18.7471 15.0072 18.6159 14.876 18.4541 14.876Z" fill="#FFCC00"/>
<path d="M1.5459 15.2627C1.3841 15.2627 1.25293 15.3939 1.25293 15.5557V17.0479C1.25293 17.2097 1.3841 17.3409 1.5459 17.3409C1.7077 17.3409 1.83887 17.2097 1.83887 17.0479V15.5557C1.83887 15.3939 1.7077 15.2627 1.5459 15.2627Z" fill="#FFCC00"/>
<path d="M12.4037 6.19032C11.2957 5.08228 8.97733 5.29412 8.03194 5.43662C7.73416 5.4815 7.51807 5.73349 7.51807 6.03579V6.71071C7.51807 6.87251 7.64924 7.00368 7.81104 7.00368C7.97283 7.00368 8.10401 6.87251 8.10401 6.71071V6.03575C8.10401 6.02579 8.11057 6.01728 8.11932 6.01595C8.49694 5.95904 9.24628 5.87122 10.0226 5.92298C10.9362 5.9838 11.598 6.21314 11.9894 6.60462C12.1038 6.71903 12.2893 6.71903 12.4037 6.60462C12.5181 6.4902 12.5181 6.3047 12.4037 6.19032Z" fill="#FFCC00"/>
<path d="M6.55811 15.502C6.39631 15.502 6.26514 15.6331 6.26514 15.7949V17.0479C6.26514 17.2097 6.39631 17.3409 6.55811 17.3409C6.7199 17.3409 6.85107 17.2097 6.85107 17.0479V15.7949C6.85107 15.6332 6.7199 15.502 6.55811 15.502Z" fill="#FFCC00"/>
<path d="M13.4497 15.502C13.2879 15.502 13.1567 15.6331 13.1567 15.7949V17.0479C13.1567 17.2097 13.2879 17.3409 13.4497 17.3409C13.6115 17.3409 13.7427 17.2097 13.7427 17.0479V15.7949C13.7427 15.6332 13.6115 15.502 13.4497 15.502Z" fill="#FFCC00"/>
</svg>
