<svg width="20" height="20" viewBox="0 0 20 20" fill="none" xmlns="http://www.w3.org/2000/svg">
<path d="M17.9998 19.3333H16.9998V18H15.3332V14.5927C15.3332 13.6927 14.8858 12.8567 14.1368 12.3573L10.6008 10L14.1368 7.64267C14.8858 7.14333 15.3332 6.30733 15.3332 5.40733V2H16.9998V0.666667H17.9998C18.1838 0.666667 18.3332 0.517667 18.3332 0.333333C18.3332 0.149 18.1838 0 17.9998 0H16.9998H16.6665H3.33317H2.99984H1.99984C1.81584 0 1.6665 0.149 1.6665 0.333333C1.6665 0.517667 1.81584 0.666667 1.99984 0.666667H2.99984V2H4.6665V5.40733C4.6665 6.30733 5.11384 7.14333 5.86284 7.64267L9.39884 10L5.86284 12.3573C5.11384 12.8567 4.6665 13.6927 4.6665 14.5927V18H2.99984V19.3333H1.99984C1.81584 19.3333 1.6665 19.4823 1.6665 19.6667C1.6665 19.851 1.81584 20 1.99984 20H2.99984H3.33317H16.6665H16.9998H17.9998C18.1838 20 18.3332 19.851 18.3332 19.6667C18.3332 19.4823 18.1838 19.3333 17.9998 19.3333ZM3.6665 1.33333V0.666667H16.3332V1.33333H15.3332H4.6665H3.6665ZM6.2325 7.088C5.6695 6.71233 5.33317 6.084 5.33317 5.40733V2H14.6665V5.40733C14.6665 6.084 14.3302 6.71233 13.7672 7.088L9.99984 9.59933L6.2325 7.088ZM5.33317 14.5927C5.33317 13.916 5.6695 13.2877 6.2325 12.912L9.99984 10.4007L13.7672 12.912C14.3302 13.2877 14.6665 13.916 14.6665 14.5927V18H5.33317V14.5927ZM3.6665 18.6667H4.6665H15.3332H16.3332V19.3333H3.6665V18.6667Z" fill="#FFCC00"/>
<path d="M6.97184 5.97834C6.78051 5.85067 6.66618 5.63701 6.66618 5.40701V4.66634C6.66618 4.48201 6.51684 4.33301 6.33284 4.33301C6.14884 4.33301 5.99951 4.48201 5.99951 4.66634V5.40701C5.99951 5.86067 6.22485 6.28167 6.60218 6.53301L8.14818 7.56367C8.20484 7.60134 8.26918 7.61967 8.33284 7.61967C8.44051 7.61967 8.54618 7.56767 8.61051 7.47134C8.71251 7.31801 8.67118 7.11134 8.51818 7.00901L6.97184 5.97834Z" fill="#FFCC00"/>
<path d="M13.3973 13.7529L11.8513 12.7222C11.698 12.6199 11.4913 12.6612 11.389 12.8145C11.287 12.9679 11.3283 13.1745 11.4813 13.2769L13.0273 14.3075C13.219 14.4352 13.3333 14.6485 13.3333 14.8789V15.6195C13.3333 15.8039 13.4826 15.9529 13.6666 15.9529C13.8506 15.9529 14 15.8039 14 15.6195V14.8789C14 14.4249 13.7746 14.0042 13.3973 13.7529Z" fill="#FFCC00"/>
</svg>
