<svg width="20" height="20" viewBox="0 0 20 20" fill="none" xmlns="http://www.w3.org/2000/svg">
<g clip-path="url(#clip0)">
<path d="M19.016 15.9079H18.6881V15.0883C18.6827 10.6199 15.2926 6.88224 10.8459 6.44179C10.9535 5.93325 11.2004 5.46473 11.559 5.08833H12.1308C12.312 5.08833 12.4587 4.94162 12.4587 4.76047C12.4587 4.57949 12.312 4.43262 12.1308 4.43262H7.54067C7.35968 4.43262 7.21281 4.57949 7.21281 4.76047C7.21281 4.94162 7.35968 5.08833 7.54067 5.08833H8.11248C8.47942 5.4745 8.72803 5.95776 8.82853 6.48087C4.52559 7.07145 1.31728 10.745 1.31123 15.0883V15.9079C1.05161 15.9061 0.802383 16.0095 0.620464 16.1945C0.431721 16.3772 0.325951 16.6291 0.327657 16.8917C0.327657 17.4348 0.767953 17.8752 1.31123 17.8752H2.95051C2.95067 18.3597 3.13057 18.8272 3.45548 19.1867H2.2948C2.11381 19.1867 1.96694 19.3335 1.96694 19.5145C1.96694 19.6957 2.11381 19.8424 2.2948 19.8424H4.91781C6.00374 19.8413 6.88387 18.9612 6.88496 17.8752H13.4423C13.4424 18.3597 13.6223 18.8272 13.9472 19.1867H12.7865C12.6056 19.1867 12.4587 19.3335 12.4587 19.5145C12.4587 19.6957 12.6056 19.8424 12.7865 19.8424H15.4096C16.4955 19.8413 17.3756 18.9612 17.3767 17.8752H19.016C19.558 17.8721 19.9966 17.4335 19.9997 16.8917C19.9997 16.3484 19.5593 15.9079 19.016 15.9079ZM8.94763 5.08833H10.7232C10.4459 5.47993 10.2637 5.93062 10.1908 6.40472C10.1272 6.40472 10.064 6.39992 9.99975 6.39992C9.82528 6.39992 9.65251 6.40643 9.48067 6.41651C9.40949 5.93822 9.22695 5.48319 8.94763 5.08833ZM1.96694 15.0883C1.96694 10.652 5.56329 7.05563 9.99975 7.05563C14.4361 7.05563 18.0324 10.652 18.0324 15.0883V15.9079H1.96694V15.0883ZM1.31123 17.2195C1.13009 17.2195 0.983371 17.0726 0.983371 16.8917C0.983216 16.8033 1.01951 16.7189 1.08371 16.6581C1.14342 16.597 1.22562 16.5629 1.31123 16.5638H3.45548C3.28395 16.7549 3.15135 16.9776 3.06528 17.2195H1.31123ZM4.91781 19.1867C4.19339 19.1867 3.60623 18.5995 3.60623 17.8752C3.60623 17.151 4.19339 16.5638 4.91781 16.5638C5.64208 16.5638 6.22924 17.151 6.22924 17.8752C6.22924 18.5995 5.64208 19.1867 4.91781 19.1867ZM6.77019 17.2195C6.68412 16.9776 6.55152 16.7549 6.37999 16.5638H13.9472C13.7757 16.7549 13.6431 16.9776 13.557 17.2195H6.77019ZM15.4096 19.1867C14.6851 19.1867 14.098 18.5995 14.098 17.8752C14.098 17.151 14.6851 16.5638 15.4096 16.5638C16.1338 16.5638 16.721 17.151 16.721 17.8752C16.721 18.5995 16.1338 19.1867 15.4096 19.1867ZM19.2437 17.1251C19.1838 17.1862 19.1016 17.2203 19.016 17.2195H17.2619C17.1759 16.9776 17.0434 16.7549 16.8717 16.5638H19.016C19.1971 16.5638 19.3438 16.7105 19.3438 16.8917C19.344 16.9799 19.3077 17.0644 19.2437 17.1251Z" fill="#FFCC00"/>
<path d="M4.26232 11.3181H5.90161C6.0826 11.3181 6.22946 11.1713 6.22946 10.9903C6.28592 10.2386 6.49808 9.50685 6.85246 8.84168C6.91651 8.71141 6.88719 8.5543 6.78049 8.45598C6.67364 8.3575 6.51483 8.34106 6.39014 8.4155C6.31988 8.45737 4.66121 9.46467 3.97045 10.845C3.92035 10.9462 3.92609 11.0661 3.98533 11.1623C4.04458 11.2584 4.14926 11.3174 4.26232 11.3181ZM5.8236 9.63868C5.71814 9.97258 5.64276 10.3152 5.59825 10.6623H4.84685C5.13082 10.2837 5.45867 9.94017 5.8236 9.63868Z" fill="#FFCC00"/>
<path d="M5.8388 15.1165C5.90084 15.0314 5.91821 14.9216 5.88533 14.8214C5.69814 14.0129 5.70155 13.172 5.89526 12.3651C5.91418 12.2689 5.88921 12.1692 5.82702 12.0935C5.76483 12.0177 5.67193 11.9736 5.57391 11.9736H3.60662C3.51977 11.9736 3.43633 12.0082 3.37492 12.0696C3.29815 12.1464 2.62305 12.8804 2.62305 14.9244C2.62305 15.1055 2.76992 15.2522 2.9509 15.2522H5.57391C5.67875 15.2521 5.77723 15.2015 5.8388 15.1165ZM5.16665 14.5965H3.28574C3.33351 13.4333 3.63097 12.8431 3.76868 12.6293H5.18371C5.07778 13.2804 5.07205 13.9437 5.16665 14.5965Z" fill="#FFCC00"/>
<path d="M0.983351 19.8471C1.16434 19.8471 1.31121 19.7002 1.31121 19.5193C1.31121 19.3381 1.16434 19.1914 0.983351 19.1914H0.655494C0.47435 19.1914 0.327637 19.3381 0.327637 19.5193C0.327637 19.7002 0.47435 19.8471 0.655494 19.8471H0.983351Z" fill="#FFCC00"/>
<path d="M11.4755 19.8471C11.6567 19.8471 11.8034 19.7002 11.8034 19.5193C11.8034 19.3381 11.6567 19.1914 11.4755 19.1914H11.1477C10.9665 19.1914 10.8198 19.3381 10.8198 19.5193C10.8198 19.7002 10.9665 19.8471 11.1477 19.8471H11.4755Z" fill="#FFCC00"/>
<path d="M2.55787 1.60085C3.23235 1.79269 3.77888 1.98485 4.16443 2.5534C4.21794 2.63203 4.26772 2.71361 4.31719 2.79503C4.41319 2.96098 4.52175 3.11932 4.64179 3.26867C5.06999 3.77721 5.78945 3.94749 6.78217 3.77302C7.01558 3.73239 7.2448 3.67686 7.46642 3.6232C7.7704 3.54225 8.07933 3.48192 8.39137 3.44222C8.82609 3.37708 9.26964 3.47091 9.64092 3.70649C9.66077 3.72153 9.68047 3.73766 9.69923 3.75425L9.70637 3.76061C9.84145 3.87708 10.0448 3.86437 10.1642 3.73192C10.2836 3.59948 10.2752 3.39584 10.1454 3.27363L10.1378 3.26681C9.99918 3.1415 9.8703 3.00673 9.74452 2.8763C9.34021 2.4543 8.92255 2.01819 8.17719 1.90126C7.90346 1.8645 7.62756 1.84589 7.35135 1.84542C6.76604 1.83209 6.213 1.81952 5.82714 1.4439C5.73501 1.35395 5.64878 1.25919 5.56473 1.16521C5.33938 0.890079 5.06813 0.656051 4.76276 0.473666C4.3234 0.245221 3.83254 0.133712 3.33765 0.149997C2.95319 0.163955 2.57183 0.224129 2.20194 0.329434C2.01459 0.379838 1.83004 0.438616 1.64641 0.500187C1.60934 0.512749 1.5563 0.536012 1.4966 0.563152C1.44107 0.589828 1.38416 0.613556 1.32615 0.634338C1.15121 0.621466 0.99721 0.748483 0.976428 0.922648C0.955801 1.09666 1.07568 1.25624 1.24876 1.28478C1.66611 1.36574 2.10609 1.47275 2.55787 1.60085ZM3.35177 0.805866C3.73282 0.789892 4.11155 0.874105 4.4501 1.05013C4.68956 1.19964 4.90234 1.38791 5.07992 1.60736C5.17437 1.71143 5.26944 1.81565 5.37133 1.91428C5.94159 2.46966 6.68276 2.48672 7.33863 2.50191C7.58584 2.5016 7.83274 2.51758 8.07794 2.54968C8.28498 2.5807 8.48272 2.65685 8.65719 2.7727C8.54631 2.77301 8.43542 2.7789 8.32515 2.79038C7.98395 2.83318 7.64602 2.89894 7.31366 2.98703C7.09948 3.03883 6.88748 3.09063 6.66973 3.12878C5.92407 3.25983 5.41103 3.16445 5.14444 2.84776C5.04595 2.72338 4.95709 2.59187 4.8783 2.4543C4.82278 2.36342 4.7671 2.27269 4.7074 2.18476C4.19731 1.43599 3.48344 1.1832 2.73591 0.970105L2.54872 0.917995C2.81175 0.852393 3.08083 0.814861 3.35177 0.805866Z" fill="#FFCC00"/>
<path d="M2.38312 5.51429C2.69904 5.79438 3.05512 6.02593 3.43943 6.20071C3.75426 6.33161 4.09158 6.39969 4.43262 6.40109C4.89028 6.40807 5.33771 6.26616 5.7076 5.99646C5.89665 5.85238 6.06384 5.68163 6.20404 5.48963C6.25785 5.40713 6.30593 5.32105 6.34796 5.23188C6.39154 5.14906 6.43683 5.05911 6.46691 5.01025C6.56446 4.90821 6.58571 4.75513 6.51964 4.63044C6.45358 4.5056 6.31508 4.4372 6.17581 4.46046C5.61703 4.5377 5.04785 4.48156 4.51481 4.29654C4.15377 4.17355 3.80203 4.02498 3.46207 3.8519C3.32761 3.78645 3.19331 3.72348 3.05683 3.66114C2.52891 3.44665 1.94996 3.39051 1.39056 3.49954C1.08488 3.55103 0.785401 3.63477 0.497247 3.74938C0.460026 3.76551 0.42358 3.78366 0.388375 3.80382C0.355496 3.82072 0.317809 3.84306 0.285706 3.85748C0.153105 3.87485 0.0442333 3.97101 0.0105791 4.1005C-0.0348618 4.2756 0.0702882 4.45457 0.245383 4.50017C0.743683 4.61478 1.22663 4.78801 1.68414 5.01646C1.93197 5.16038 2.166 5.32694 2.38312 5.51429ZM1.49788 4.14641C1.92871 4.05863 2.37583 4.09756 2.78511 4.25854C2.91616 4.31887 3.04737 4.38106 3.17842 4.44372C3.54598 4.62998 3.9261 4.78987 4.31615 4.92247C4.74295 5.06174 5.18743 5.13913 5.6361 5.152C5.54274 5.27204 5.43418 5.37967 5.31321 5.47195C4.82825 5.78833 4.21518 5.83408 3.68866 5.59323C3.36359 5.44109 3.06226 5.24227 2.79457 5.00312C2.54659 4.78987 2.27875 4.60082 1.99494 4.43844C1.79906 4.33453 1.59682 4.24334 1.38932 4.16533C1.42607 4.15882 1.46205 4.1523 1.49819 4.1461L1.49788 4.14641Z" fill="#FFCC00"/>
</g>
<defs>
<clipPath id="clip0">
<rect width="20" height="20" fill="white"/>
</clipPath>
</defs>
</svg>
