<svg width="82" height="82" viewBox="0 0 82 82" fill="none" xmlns="http://www.w3.org/2000/svg">
<circle cx="41" cy="41" r="40.5" stroke="#FFCC00"/>
<g clip-path="url(#clip0)">
<path d="M57.8796 54.2852L52.0338 44.0155C52.6263 43.739 52.9818 43.107 52.9423 42.396L52.5078 38.7621L54.9962 36.1552C55.5492 35.6022 55.5887 34.6543 55.0357 33.9828L52.5473 31.2969L53.0608 27.6235C53.1398 26.8335 52.5868 26.0435 51.7968 25.8855L48.2024 25.1745L46.4645 21.9751C46.109 21.2246 45.24 20.9087 44.45 21.2246H44.4105L41.0926 22.7651L37.8537 21.1852C37.4982 20.9877 37.0637 20.9482 36.6688 21.0667C36.2738 21.1852 35.9578 21.4616 35.7603 21.8171L33.9828 25.0165L30.3884 25.6485C29.559 25.8065 29.006 26.557 29.085 27.426L29.5195 31.0599L27.031 33.6668C26.478 34.2198 26.4385 35.1677 26.9915 35.8392L29.48 38.5252L28.9665 42.1985C28.8875 42.9095 29.322 43.581 29.9934 43.8575L24.1081 54.2852C23.9501 54.5222 23.9896 54.8382 24.1081 55.0752C24.2661 55.3122 24.5031 55.4702 24.7796 55.4702H31.0994L33.9828 60.4865C34.1408 60.7235 34.3778 60.8815 34.6543 60.8815C34.9308 60.8815 35.2073 60.7235 35.3258 60.4865L40.9741 50.8488L46.6225 60.605C46.7805 60.842 47.0175 61 47.2939 61C47.5704 61 47.8469 60.842 47.9654 60.605L50.8488 55.4702H57.1687C57.4451 55.4702 57.7216 55.3122 57.8401 55.0752C58.0376 54.8382 58.0376 54.5222 57.8796 54.2852ZM34.6938 58.5116L32.2449 54.2852C32.0869 54.0482 31.8499 53.8902 31.5734 53.8902H26.1226L31.5734 44.2525L33.8248 44.6475L35.5628 47.8469C35.9183 48.5974 36.7872 48.9133 37.5772 48.5974H37.6167L39.2362 47.8469L40.0262 49.2293L34.6938 58.5116ZM36.9847 47.1754C36.9452 47.1754 36.9452 47.1754 36.9452 47.1754L35.2073 43.897C34.9703 43.502 34.5753 43.186 34.1013 43.1465L30.4674 42.475L30.9809 38.8411C31.0599 38.3672 30.9019 37.8537 30.5859 37.5377L28.137 34.8518L30.6254 32.2448C30.9809 31.8893 31.1389 31.4154 31.0599 30.9414L30.6254 27.347C30.6254 27.347 30.6254 27.3075 30.6649 27.268L34.2593 26.636C34.6938 26.557 35.1283 26.2805 35.3653 25.846L37.1427 22.6466L40.3816 24.2266C40.8161 24.4636 41.3691 24.4636 41.8036 24.2266L45.082 22.7256C45.1215 22.7256 45.1215 22.7256 45.1215 22.7256L46.8595 26.004C47.0964 26.399 47.4914 26.715 47.9259 26.7545L51.5203 27.4655L51.0068 31.0994C50.9278 31.5733 51.0858 32.0868 51.4018 32.4028L53.8903 35.0887L51.3623 37.6957C51.0068 38.0512 50.8488 38.5251 50.9278 38.9991L51.3623 42.633L47.8074 43.2255C47.3729 43.3045 46.9385 43.581 46.7015 44.0155L44.924 47.2149L41.6851 45.6349C41.2506 45.398 40.6976 45.398 40.2631 45.6349L36.9847 47.1754ZM50.4144 53.8902C50.1379 53.8902 49.8614 54.0482 49.7429 54.2852L47.2939 58.6301L41.7246 48.9923C41.6851 48.8738 41.6456 48.7949 41.5666 48.7159L40.6976 47.1754L40.9741 47.0569L44.213 48.6369C44.45 48.7554 44.687 48.7949 44.924 48.7949C45.477 48.7949 46.03 48.5184 46.3065 48.0049L48.0839 44.8055L50.4538 44.371L55.8652 53.8902H50.4144Z" fill="black"/>
<path d="M48.8738 34.9307C48.8738 30.5859 45.3189 27.031 40.974 27.031C36.6291 27.031 33.0742 30.5859 33.0742 34.9307C33.0742 39.2756 36.6291 42.8305 40.974 42.8305C45.3189 42.8305 48.8738 39.2756 48.8738 34.9307ZM40.974 41.2506C37.4981 41.2506 34.6542 38.4066 34.6542 34.9307C34.6542 31.4548 37.4981 28.6109 40.974 28.6109C44.4499 28.6109 47.2938 31.4548 47.2938 34.9307C47.2938 38.4066 44.4499 41.2506 40.974 41.2506Z" fill="black"/>
</g>
<defs>
<clipPath id="clip0">
<rect width="40" height="40" fill="white" transform="translate(21 21)"/>
</clipPath>
</defs>
</svg>
