<svg width="82" height="82" viewBox="0 0 82 82" fill="none" xmlns="http://www.w3.org/2000/svg">
<circle cx="41" cy="41" r="40.5" stroke="#FFCC00"/>
<g clip-path="url(#clip0)">
<path d="M52.6148 45.7786C51.7959 44.9259 50.8081 44.47 49.7613 44.47C48.7229 44.47 47.7267 44.9174 46.874 45.7701L44.2063 48.4294C43.9868 48.3112 43.7673 48.2015 43.5562 48.0917C43.2523 47.9398 42.9652 47.7963 42.7204 47.6443C40.2215 46.0571 37.9505 43.9888 35.7724 41.3126C34.7171 39.9787 34.008 38.8559 33.493 37.7162C34.1853 37.083 34.8269 36.4245 35.4516 35.7913C35.688 35.555 35.9244 35.3101 36.1608 35.0737C37.9337 33.3009 37.9337 31.0046 36.1608 29.2317L33.856 26.927C33.5943 26.6652 33.3242 26.3951 33.0709 26.1249C32.5644 25.6015 32.0325 25.0612 31.4838 24.5547C30.6649 23.7442 29.6855 23.3137 28.6556 23.3137C27.6256 23.3137 26.6294 23.7442 25.7852 24.5547C25.7768 24.5631 25.7768 24.5631 25.7683 24.5716L22.898 27.4673C21.8174 28.5479 21.2011 29.8649 21.066 31.3929C20.8634 33.8581 21.5894 36.1544 22.1466 37.6571C23.5142 41.3464 25.5573 44.7655 28.6049 48.4294C32.3027 52.8447 36.7517 56.3314 41.834 58.7881C43.7757 59.7083 46.3675 60.7974 49.2632 60.9831C49.4405 60.9915 49.6262 61 49.795 61C51.7452 61 53.383 60.2993 54.6662 58.9063C54.6747 58.8894 54.6916 58.881 54.7 58.8641C55.139 58.3322 55.6455 57.851 56.1774 57.336C56.5404 56.9899 56.9119 56.6269 57.2749 56.247C58.1107 55.3774 58.5497 54.3643 58.5497 53.3259C58.5497 52.2791 58.1022 51.2745 57.2496 50.4302L52.6148 45.7786ZM55.6371 54.6683C55.6287 54.6683 55.6287 54.6767 55.6371 54.6683C55.3079 55.0228 54.9702 55.3436 54.6071 55.6982C54.0584 56.2216 53.5012 56.7704 52.9778 57.3867C52.1251 58.2984 51.1205 58.729 49.8035 58.729C49.6769 58.729 49.5418 58.729 49.4151 58.7206C46.9078 58.5602 44.5777 57.5808 42.8302 56.7451C38.0518 54.4319 33.856 51.1478 30.3694 46.9858C27.4906 43.516 25.5657 40.308 24.2909 36.8635C23.5058 34.7614 23.2188 33.1236 23.3454 31.5786C23.4298 30.5909 23.8097 29.772 24.5104 29.0713L27.3893 26.1925C27.8029 25.8041 28.2419 25.5931 28.6725 25.5931C29.2043 25.5931 29.6349 25.9139 29.905 26.184C29.9135 26.1925 29.9219 26.2009 29.9304 26.2094C30.4454 26.6906 30.935 27.1887 31.45 27.7205C31.7117 27.9907 31.9818 28.2608 32.252 28.5394L34.5567 30.8442C35.4516 31.739 35.4516 32.5664 34.5567 33.4613C34.3119 33.7061 34.0755 33.9509 33.8307 34.1873C33.1216 34.9133 32.4462 35.5887 31.7117 36.2472C31.6948 36.2641 31.6779 36.2725 31.6695 36.2894C30.9434 37.0155 31.0785 37.7246 31.2305 38.2058C31.2389 38.2312 31.2474 38.2565 31.2558 38.2818C31.8552 39.7339 32.6994 41.1015 33.9827 42.7309L33.9911 42.7393C36.3212 45.6097 38.7779 47.8469 41.4879 49.5607C41.834 49.7802 42.1886 49.9575 42.5262 50.1263C42.8302 50.2783 43.1172 50.4218 43.362 50.5738C43.3958 50.5906 43.4296 50.616 43.4633 50.6329C43.7504 50.7764 44.0205 50.8439 44.2991 50.8439C44.9998 50.8439 45.4388 50.4049 45.5824 50.2614L48.4696 47.3741C48.7566 47.0871 49.2125 46.741 49.7444 46.741C50.2678 46.741 50.6984 47.0702 50.9601 47.3573C50.9685 47.3657 50.9685 47.3657 50.977 47.3741L55.6287 52.0258C56.4982 52.8869 56.4982 53.7734 55.6371 54.6683Z" fill="black"/>
<path d="M42.6217 30.5149C44.8336 30.8863 46.8429 31.9332 48.4469 33.5372C50.0509 35.1412 51.0893 37.1505 51.4692 39.3624C51.5621 39.9196 52.0433 40.3079 52.5921 40.3079C52.6596 40.3079 52.7187 40.2995 52.7862 40.291C53.411 40.1897 53.8246 39.5988 53.7233 38.974C53.2675 36.2978 52.0011 33.858 50.0678 31.9247C48.1345 29.9914 45.6947 28.7251 43.0185 28.2692C42.3938 28.1679 41.8113 28.5816 41.7015 29.1979C41.5918 29.8142 41.997 30.4136 42.6217 30.5149Z" fill="black"/>
<path d="M60.9552 38.6448C60.2038 34.2379 58.127 30.2278 54.9358 27.0367C51.7447 23.8455 47.7346 21.7687 43.3277 21.0173C42.7114 20.9076 42.1289 21.3297 42.0192 21.946C41.9178 22.5707 42.3315 23.1532 42.9562 23.263C46.8903 23.9299 50.4783 25.7956 53.3318 28.6407C56.1853 31.4942 58.0426 35.0821 58.7095 39.0162C58.8024 39.5734 59.2836 39.9618 59.8324 39.9618C59.8999 39.9618 59.959 39.9533 60.0265 39.9449C60.6428 39.852 61.0649 39.2611 60.9552 38.6448Z" fill="black"/>
</g>
<defs>
<clipPath id="clip0">
<rect width="40" height="40" fill="white" transform="translate(21 21)"/>
</clipPath>
</defs>
</svg>
