<svg width="35" height="35" viewBox="0 0 35 35" fill="none" xmlns="http://www.w3.org/2000/svg">
<path d="M34.9132 16.2936C34.323 7.6325 27.3463 0.655223 18.6845 0.064412L18.0623 0.0224609V16.9159H34.9557L34.9132 16.2936ZM19.2276 15.7506V1.28158C20.6696 1.43598 22.0558 1.78207 23.3627 2.29073C23.3603 2.31112 23.351 2.3286 23.351 2.34958C23.351 2.6712 23.612 2.93223 23.9337 2.93223C24.109 2.93223 24.2611 2.85066 24.3683 2.7283C27.2449 4.07831 29.6641 6.24462 31.3322 8.92599C31.2273 8.82286 31.084 8.75877 30.9255 8.75877C30.6039 8.75877 30.3428 9.0198 30.3428 9.34142C30.3428 9.66305 30.6039 9.92408 30.9255 9.92408C31.2471 9.92408 31.5082 9.66305 31.5082 9.34142C31.5082 9.26626 31.4913 9.19576 31.4656 9.12992C31.7639 9.62517 32.0302 10.1408 32.2755 10.6681C32.1631 10.7742 32.0908 10.9227 32.0908 11.0894C32.0908 11.411 32.3518 11.672 32.6735 11.672C32.6857 11.672 32.6962 11.6656 32.709 11.665C33.2072 12.9574 33.5445 14.3272 33.6972 15.7506H19.2276Z" fill="#141414"/>
<path d="M18.2476 18.0811L29.9571 29.7906L30.3685 29.3443C33.0592 26.4264 34.6889 22.6473 34.9575 18.7033L35 18.0811H18.2476ZM29.9152 28.101L21.0606 19.2464H33.7403C33.3907 22.4999 32.05 25.6031 29.9152 28.101Z" fill="#141414"/>
<path d="M20.4371 2.93191C20.7589 2.93191 21.0198 2.67105 21.0198 2.34926C21.0198 2.02746 20.7589 1.7666 20.4371 1.7666C20.1154 1.7666 19.8545 2.02746 19.8545 2.34926C19.8545 2.67105 20.1154 2.93191 20.4371 2.93191Z" fill="#141414"/>
<path d="M20.4371 6.428C20.7589 6.428 21.0198 6.16714 21.0198 5.84535C21.0198 5.52356 20.7589 5.2627 20.4371 5.2627C20.1154 5.2627 19.8545 5.52356 19.8545 5.84535C19.8545 6.16714 20.1154 6.428 20.4371 6.428Z" fill="#141414"/>
<path d="M22.1852 4.67996C22.507 4.67996 22.7678 4.41909 22.7678 4.0973C22.7678 3.77551 22.507 3.51465 22.1852 3.51465C21.8634 3.51465 21.6025 3.77551 21.6025 4.0973C21.6025 4.41909 21.8634 4.67996 22.1852 4.67996Z" fill="#141414"/>
<path d="M25.681 4.67996C26.0028 4.67996 26.2637 4.41909 26.2637 4.0973C26.2637 3.77551 26.0028 3.51465 25.681 3.51465C25.3593 3.51465 25.0984 3.77551 25.0984 4.0973C25.0984 4.41909 25.3593 4.67996 25.681 4.67996Z" fill="#141414"/>
<path d="M23.933 6.428C24.2548 6.428 24.5156 6.16714 24.5156 5.84535C24.5156 5.52356 24.2548 5.2627 23.933 5.2627C23.6112 5.2627 23.3503 5.52356 23.3503 5.84535C23.3503 6.16714 23.6112 6.428 23.933 6.428Z" fill="#141414"/>
<path d="M27.4291 6.428C27.7509 6.428 28.0117 6.16714 28.0117 5.84535C28.0117 5.52356 27.7509 5.2627 27.4291 5.2627C27.1073 5.2627 26.8464 5.52356 26.8464 5.84535C26.8464 6.16714 27.1073 6.428 27.4291 6.428Z" fill="#141414"/>
<path d="M29.1769 8.17605C29.4987 8.17605 29.7595 7.91519 29.7595 7.5934C29.7595 7.27161 29.4987 7.01074 29.1769 7.01074C28.8551 7.01074 28.5942 7.27161 28.5942 7.5934C28.5942 7.91519 28.8551 8.17605 29.1769 8.17605Z" fill="#141414"/>
<path d="M22.1852 8.17605C22.507 8.17605 22.7678 7.91519 22.7678 7.5934C22.7678 7.27161 22.507 7.01074 22.1852 7.01074C21.8634 7.01074 21.6025 7.27161 21.6025 7.5934C21.6025 7.91519 21.8634 8.17605 22.1852 8.17605Z" fill="#141414"/>
<path d="M25.681 8.17605C26.0028 8.17605 26.2637 7.91519 26.2637 7.5934C26.2637 7.27161 26.0028 7.01074 25.681 7.01074C25.3593 7.01074 25.0984 7.27161 25.0984 7.5934C25.0984 7.91519 25.3593 8.17605 25.681 8.17605Z" fill="#141414"/>
<path d="M29.1769 11.6721C29.4987 11.6721 29.7595 11.4113 29.7595 11.0895C29.7595 10.7677 29.4987 10.5068 29.1769 10.5068C28.8551 10.5068 28.5942 10.7677 28.5942 11.0895C28.5942 11.4113 28.8551 11.6721 29.1769 11.6721Z" fill="#141414"/>
<path d="M30.9249 13.4202C31.2467 13.4202 31.5076 13.1593 31.5076 12.8375C31.5076 12.5157 31.2467 12.2549 30.9249 12.2549C30.6031 12.2549 30.3423 12.5157 30.3423 12.8375C30.3423 13.1593 30.6031 13.4202 30.9249 13.4202Z" fill="#141414"/>
<path d="M20.4371 9.92409C20.7589 9.92409 21.0198 9.66323 21.0198 9.34144C21.0198 9.01965 20.7589 8.75879 20.4371 8.75879C20.1154 8.75879 19.8545 9.01965 19.8545 9.34144C19.8545 9.66323 20.1154 9.92409 20.4371 9.92409Z" fill="#141414"/>
<path d="M20.4371 13.4202C20.7589 13.4202 21.0198 13.1593 21.0198 12.8375C21.0198 12.5157 20.7589 12.2549 20.4371 12.2549C20.1154 12.2549 19.8545 12.5157 19.8545 12.8375C19.8545 13.1593 20.1154 13.4202 20.4371 13.4202Z" fill="#141414"/>
<path d="M22.1852 11.6721C22.507 11.6721 22.7678 11.4113 22.7678 11.0895C22.7678 10.7677 22.507 10.5068 22.1852 10.5068C21.8634 10.5068 21.6025 10.7677 21.6025 11.0895C21.6025 11.4113 21.8634 11.6721 22.1852 11.6721Z" fill="#141414"/>
<path d="M25.681 11.6721C26.0028 11.6721 26.2637 11.4113 26.2637 11.0895C26.2637 10.7677 26.0028 10.5068 25.681 10.5068C25.3593 10.5068 25.0984 10.7677 25.0984 11.0895C25.0984 11.4113 25.3593 11.6721 25.681 11.6721Z" fill="#141414"/>
<path d="M23.933 9.92409C24.2548 9.92409 24.5156 9.66323 24.5156 9.34144C24.5156 9.01965 24.2548 8.75879 23.933 8.75879C23.6112 8.75879 23.3503 9.01965 23.3503 9.34144C23.3503 9.66323 23.6112 9.92409 23.933 9.92409Z" fill="#141414"/>
<path d="M27.4291 9.92409C27.7509 9.92409 28.0117 9.66323 28.0117 9.34144C28.0117 9.01965 27.7509 8.75879 27.4291 8.75879C27.1073 8.75879 26.8464 9.01965 26.8464 9.34144C26.8464 9.66323 27.1073 9.92409 27.4291 9.92409Z" fill="#141414"/>
<path d="M23.933 13.4202C24.2548 13.4202 24.5156 13.1593 24.5156 12.8375C24.5156 12.5157 24.2548 12.2549 23.933 12.2549C23.6112 12.2549 23.3503 12.5157 23.3503 12.8375C23.3503 13.1593 23.6112 13.4202 23.933 13.4202Z" fill="#141414"/>
<path d="M27.4291 13.4202C27.7509 13.4202 28.0117 13.1593 28.0117 12.8375C28.0117 12.5157 27.7509 12.2549 27.4291 12.2549C27.1073 12.2549 26.8464 12.5157 26.8464 12.8375C26.8464 13.1593 27.1073 13.4202 27.4291 13.4202Z" fill="#141414"/>
<path d="M32.673 15.1682C32.9948 15.1682 33.2556 14.9074 33.2556 14.5856C33.2556 14.2638 32.9948 14.0029 32.673 14.0029C32.3512 14.0029 32.0903 14.2638 32.0903 14.5856C32.0903 14.9074 32.3512 15.1682 32.673 15.1682Z" fill="#141414"/>
<path d="M29.1769 15.1682C29.4987 15.1682 29.7595 14.9074 29.7595 14.5856C29.7595 14.2638 29.4987 14.0029 29.1769 14.0029C28.8551 14.0029 28.5942 14.2638 28.5942 14.5856C28.5942 14.9074 28.8551 15.1682 29.1769 15.1682Z" fill="#141414"/>
<path d="M22.1852 15.1682C22.507 15.1682 22.7678 14.9074 22.7678 14.5856C22.7678 14.2638 22.507 14.0029 22.1852 14.0029C21.8634 14.0029 21.6025 14.2638 21.6025 14.5856C21.6025 14.9074 21.8634 15.1682 22.1852 15.1682Z" fill="#141414"/>
<path d="M25.681 15.1682C26.0028 15.1682 26.2637 14.9074 26.2637 14.5856C26.2637 14.2638 26.0028 14.0029 25.681 14.0029C25.3593 14.0029 25.0984 14.2638 25.0984 14.5856C25.0984 14.9074 25.3593 15.1682 25.681 15.1682Z" fill="#141414"/>
<path d="M16.897 0.0224609L16.2747 0.064412C7.14858 0.687269 0 8.3445 0 17.4986C0 21.7164 1.52714 25.7915 4.29998 28.9739L4.71017 29.4447L16.897 17.2574V0.0224609ZM15.7316 16.7749L4.77718 27.7294C2.44365 24.8348 1.16531 21.2264 1.16531 17.4986C1.16531 9.16488 7.5139 2.15905 15.7316 1.28158V16.7749Z" fill="#141414"/>
<path d="M5.53394 30.2682L6.00472 30.6784C9.18659 33.4512 13.2623 34.9784 17.4795 34.9784C21.5155 34.9784 25.4543 33.5654 28.5715 31.0012L29.0673 30.5933L17.1381 18.6641L5.53394 30.2682ZM17.1381 20.3118L17.7796 20.9533L7.98632 30.746C7.73811 30.5677 7.48757 30.394 7.24869 30.2018L17.1381 20.3118ZM12.351 32.974C11.946 32.8394 11.5475 32.688 11.1548 32.5219L20.2518 23.4249L21.0756 24.2488L12.351 32.974ZM21.8995 25.0733L22.7234 25.8971L15.0067 33.6144C14.5435 33.5433 14.0844 33.453 13.6305 33.3423L21.8995 25.0733ZM10.0326 31.9963C9.67369 31.8122 9.32293 31.6135 8.978 31.4026L18.6034 21.7772L19.4279 22.6016L10.0326 31.9963ZM16.4977 33.7711L23.5473 26.721L24.3711 27.5449L18.1303 33.7863C17.9136 33.795 17.6974 33.8131 17.4795 33.8131C17.1509 33.8131 16.8246 33.7909 16.4977 33.7711ZM25.195 28.3693L26.0195 29.1938L22.079 33.1343C21.3798 33.3405 20.6695 33.5066 19.947 33.6179L25.195 28.3693ZM24.7976 32.0633L26.8439 30.0171L27.3263 30.4995C26.5316 31.1025 25.6815 31.6188 24.7976 32.0633Z" fill="#141414"/>
</svg>
