<svg width="35" height="35" viewBox="0 0 35 35" fill="none" xmlns="http://www.w3.org/2000/svg">
<path d="M13.8889 16.944H2.77775C1.2461 16.944 0 15.6979 0 14.1662V3.05515C0 1.52345 1.2461 0.277344 2.77775 0.277344H13.8889C15.4206 0.277344 16.6667 1.52345 16.6667 3.0551V14.1662C16.6667 15.6979 15.4206 16.944 13.8889 16.944ZM2.77775 1.38848C1.85889 1.38848 1.11108 2.13629 1.11108 3.05515V14.1663C1.11108 15.0851 1.85883 15.833 2.77775 15.833H13.8889C14.8078 15.833 15.5556 15.0851 15.5556 14.1663V3.05515C15.5556 2.13629 14.8078 1.38848 13.8889 1.38848H2.77775Z" fill="#141414"/>
<path d="M13.3332 8.61108H3.88879C3.58157 8.61108 3.33325 8.36276 3.33325 8.05554C3.33325 7.74832 3.58157 7.5 3.88879 7.5H13.3332C13.6405 7.5 13.8888 7.74832 13.8888 8.05554C13.8888 8.36276 13.6405 8.61108 13.3332 8.61108Z" fill="#141414"/>
<path d="M8.33337 13.6102C8.02615 13.6102 7.77783 13.3619 7.77783 13.0547V3.61023C7.77783 3.303 8.02615 3.05469 8.33337 3.05469C8.64059 3.05469 8.88891 3.303 8.88891 3.61023V13.0547C8.88897 13.3619 8.64059 13.6102 8.33337 13.6102Z" fill="#141414"/>
<path d="M32.2221 16.944H21.111C19.5794 16.944 18.3333 15.6979 18.3333 14.1662V3.0551C18.3333 1.52345 19.5794 0.277344 21.111 0.277344H32.2221C33.7538 0.277287 34.9999 1.52339 34.9999 3.0551V14.1662C34.9999 15.6979 33.7538 16.944 32.2221 16.944ZM21.111 1.38842C20.1921 1.38842 19.4443 2.13618 19.4443 3.0551V14.1662C19.4443 15.0851 20.1921 15.8329 21.111 15.8329H32.2221C33.141 15.8329 33.8888 15.0851 33.8888 14.1662V3.0551C33.8888 2.13623 33.1411 1.38842 32.2221 1.38842H21.111Z" fill="#141414"/>
<path d="M30.2616 12.0909C30.1195 12.0909 29.9772 12.0365 29.8689 11.9281L23.19 5.24924C22.9728 5.03204 22.9728 4.68089 23.19 4.46369C23.4073 4.24648 23.7584 4.24648 23.9755 4.46369L30.6538 11.142C30.8711 11.3592 30.8711 11.7109 30.6538 11.9276C30.5456 12.0364 30.4039 12.0909 30.2616 12.0909Z" fill="#141414"/>
<path d="M23.19 12.0909C23.0478 12.0909 22.9055 12.0365 22.7972 11.9281C22.58 11.7109 22.58 11.3593 22.7972 11.1426L29.4761 4.46369C29.6933 4.24648 30.0444 4.24648 30.2616 4.46369C30.4788 4.68089 30.4788 5.03204 30.2616 5.24924L23.5827 11.9281C23.4745 12.0364 23.3322 12.0909 23.19 12.0909Z" fill="#141414"/>
<path d="M13.8889 34.7214H2.77775C1.2461 34.7214 0 33.4753 0 31.9436V20.8325C0 19.3008 1.2461 18.0547 2.77775 18.0547H13.8889C15.4206 18.0547 16.6667 19.3008 16.6667 20.8325V31.9436C16.6667 33.4753 15.4206 34.7214 13.8889 34.7214ZM2.77775 19.1658C1.85889 19.1658 1.11108 19.9136 1.11108 20.8326V31.9436C1.11108 32.8625 1.85883 33.6104 2.77775 33.6104H13.8889C14.8078 33.6104 15.5556 32.8626 15.5556 31.9436V20.8325C15.5556 19.9136 14.8078 19.1658 13.8889 19.1658H2.77775V19.1658Z" fill="#141414"/>
<path d="M13.3332 25.2771H3.88879C3.58157 25.2771 3.33325 25.0288 3.33325 24.7216C3.33325 24.4144 3.58157 24.166 3.88879 24.166H13.3332C13.6405 24.166 13.8888 24.4144 13.8888 24.7216C13.8888 25.0288 13.6405 25.2771 13.3332 25.2771Z" fill="#141414"/>
<path d="M31.1111 26.9441H21.6667C21.3595 26.9441 21.1111 26.6958 21.1111 26.3886C21.1111 26.0814 21.3595 25.833 21.6667 25.833H31.1111C31.4183 25.833 31.6666 26.0814 31.6666 26.3886C31.6666 26.6958 31.4183 26.9441 31.1111 26.9441Z" fill="#141414"/>
<path d="M13.3332 29.1658H3.88879C3.58157 29.1658 3.33325 28.9175 3.33325 28.6103C3.33325 28.3031 3.58157 28.0547 3.88879 28.0547H13.3332C13.6405 28.0547 13.8888 28.3031 13.8888 28.6103C13.8888 28.9175 13.6405 29.1658 13.3332 29.1658Z" fill="#141414"/>
<path d="M32.2221 34.7214H21.111C19.5794 34.7214 18.3333 33.4753 18.3333 31.9436V20.8325C18.3333 19.3008 19.5794 18.0547 21.111 18.0547H32.2221C33.7538 18.0547 34.9999 19.3008 34.9999 20.8325V31.9436C34.9999 33.4753 33.7538 34.7214 32.2221 34.7214ZM21.111 19.1658C20.1921 19.1658 19.4443 19.9136 19.4443 20.8326V31.9436C19.4443 32.8625 20.1921 33.6104 21.111 33.6104H32.2221C33.141 33.6104 33.8888 32.8626 33.8888 31.9436V20.8325C33.8888 19.9136 33.1411 19.1658 32.2221 19.1658H21.111V19.1658Z" fill="#141414"/>
</svg>
