<svg width="20" height="20" viewBox="0 0 20 20" fill="none" xmlns="http://www.w3.org/2000/svg">
<path d="M9.99969 0C4.48587 0 0 4.48587 0 10.0003C0 15.5141 4.48526 20 9.99969 20C10.3407 20 10.6162 19.7239 10.6162 19.3841C10.6162 19.0437 10.3407 18.7676 9.99969 18.7676C5.16546 18.7676 1.23366 14.8345 1.23366 10.0009C1.23366 5.16668 5.16546 1.23366 9.99969 1.23366C14.8339 1.23366 18.7651 5.16668 18.7651 10.0009C18.7651 12.0207 17.69 14.0239 16.1515 14.8713C15.5925 15.1786 14.9864 15.3311 14.3399 15.3372C14.728 15.1058 15.0641 14.7941 15.3139 14.3999C15.3629 14.3258 15.4278 14.2615 15.4596 14.1801C15.6605 13.697 15.6782 13.149 15.7994 12.6397C15.9482 11.987 12.9476 10.7154 12.6868 11.5285C12.5925 11.8303 12.448 12.7823 12.2589 13.0333C12.0905 13.2568 11.6754 13.1515 11.4158 12.9305C10.7319 12.3476 9.96847 11.4905 9.29868 10.814L9.2999 10.8134C9.28276 10.7956 9.26195 10.7754 9.24358 10.7576C9.2246 10.7393 9.20562 10.7197 9.18664 10.7013C8.50951 10.0321 7.65237 9.26991 7.07013 8.5842C6.84973 8.32461 6.7432 7.91074 6.96728 7.74176C7.21829 7.55196 8.17094 7.40931 8.47216 7.31441C9.28399 7.05421 8.01298 4.0518 7.36033 4.20179C6.85095 4.32118 6.303 4.33955 5.81994 4.53975C5.7379 4.57403 5.67423 4.63771 5.60015 4.68669C3.88649 5.77341 3.66547 8.41093 5.33811 10.3756C5.97545 11.1274 6.64034 11.8548 7.32482 12.565L7.32115 12.5674C7.34013 12.5864 7.35972 12.6042 7.37931 12.6225C7.39768 12.6415 7.41543 12.6605 7.43319 12.6807L7.43686 12.677C8.14706 13.3615 8.98889 14.3692 10.3566 15.2821C13.236 17.2051 15.4456 16.6682 16.7472 15.9543C18.9941 14.717 19.9994 12.074 19.9994 10.004C20 4.48587 15.5135 0 9.99969 0Z" fill="#141414"/>
</svg>
